# xmcd
#
# Track frame offsets: 
#        150
#        14292
#        23872
#        37525
#        50060
#        62107
#        72495
#        86572
#        99757
#        109452
#        121012
#
# Disc length: 1753 seconds
#
# Revision: 0
# Processed by: cddbd v1.4PL0 Copyright (c) Steve Scherf et al.
# Submitted via: ExactAudioCopy v0.90b3
#
DISCID=8706d70b
DTITLE=George Jones - The Grand Tour
DYEAR=1900
DGENRE=Country
TTITLE0=The Grand Tour
TTITLE1=Darlin'
TTITLE2=Pass Me By (If You're Only Passing Through)
TTITLE3=She'll Love The One She's With
TTITLE4=Once You've Had The Best
TTITLE5=The Weatherman
TTITLE6=Borrowed Angel
TTITLE7=She Told Me So
TTITLE8=Mary Don't Go 'Round
TTITLE9=Who Will I Be Loving Now
TTITLE10=Our Private Life
EXTD=
EXTT0=
EXTT1=
EXTT2=
EXTT3=
EXTT4=
EXTT5=
EXTT6=
EXTT7=
EXTT8=
EXTT9=
EXTT10=
PLAYORDER=
